<svg xmlns="http://www.w3.org/2000/svg" width="48" height="48" class="icon" viewBox="0 0 1024 1024"><path fill="#c8e6c9" d="m731.861 131.541 225.835 225.835-451.285 451.243-139.947 18.261-3.925.853a21.3 21.3 0 0 0-6.998 3.926l-68.821 57.216-150.315-33.963 119.851-119.808 2.261-2.645a21.33 21.33 0 0 0 3.798-9.686l18.218-139.989z" class="selected" data-spm-anchor-id="a313x.search_index.0.i2.796e3a81nRftPS"/><path d="M707.712 95.317a34.133 34.133 0 0 1 48.299 0l237.866 237.91a34.133 34.133 0 0 1 0 48.256L534.613 840.832a34.13 34.13 0 0 1-19.754 9.728l-136.747 17.792-67.157 56.021a34.13 34.13 0 0 1-24.918 7.766l-4.48-.683L112 893.141a34.133 34.133 0 0 1-16.64-57.429l125.653-125.653 17.707-135.68a34.13 34.13 0 0 1 6.741-16.342l2.987-3.37zm-466.56 654.848L136.448 854.912l150.315 33.963 50.773-42.326zm37.675-154.325L263.68 712.363l113.11 113.109 116.48-15.19zM731.86 131.541 303.275 560a22 22 0 0 1 1.024.939l224 224 .768.938 428.629-428.501z"/></svg>